<svg t="1719370321430" class="icon" viewBox="0 0 1024 1024" version="1.1" xmlns="http://www.w3.org/2000/svg" p-id="7220" width="32" height="32">
                    <path d="M500.736 817.749333a313.514667 313.514667 0 1 0 0-627.072 313.514667 313.514667 0 0 0 0 627.072z m0 62.677334a376.192 376.192 0 0 1-376.192-376.234667A376.192 376.192 0 0 1 500.736 128a376.192 376.192 0 0 1 376.234667 376.234667 376.192 376.192 0 0 1-376.234667 376.192z" fill="#ffffff" p-id="7221"></path><path d="M700.245333 261.674667l-22.826666-58.368 0.085333-0.042667 0.128-0.042667 0.469333-0.213333 1.621334-0.597333 5.888-2.133334c4.992-1.792 12.117333-4.224 20.736-6.912 17.194667-5.376 40.874667-11.946667 66.218666-16.384 25.002667-4.352 53.546667-6.954667 79.786667-3.242666 26.026667 3.754667 54.912 14.634667 72.106667 42.154666 20.565333 32.896 16.341333 71.68 2.901333 106.88-13.653333 35.626667-38.826667 73.685333-70.4 111.658667-63.36 76.288-157.781333 158.421333-257.152 228.608-99.242667 70.186667-205.824 130.133333-294.272 160.512-43.946667 15.061333-86.101333 23.893333-121.856 21.12-36.949333-2.773333-71.210667-18.688-87.808-56.021333-24.405333-54.997333-1.621333-108.928 20.138667-143.274667a308.096 308.096 0 0 1 48.896-58.709333l1.066666-0.981334 0.298667-0.298666 0.170667-0.170667 20.778666 23.509333 20.736 23.466667v0.085333l-0.597333 0.512a245.205333 245.205333 0 0 0-38.4 46.208c-18.517333 29.184-27.050667 58.88-15.786667 84.181334 4.309333 9.685333 13.141333 17.322667 35.242667 18.986666 23.296 1.792 56.021333-3.968 96.725333-17.92 80.725333-27.733333 181.802667-84.053333 278.485334-152.405333 96.554667-68.266667 186.368-146.773333 245.12-217.472 29.525333-35.498667 49.92-67.498667 60.032-93.994667 10.24-26.88 8.064-42.368 2.474666-51.242666-3.328-5.376-10.837333-10.88-27.818666-13.312-16.810667-2.389333-37.973333-0.896-60.074667 2.944a501.973333 501.973333 0 0 0-81.621333 22.357333l-1.194667 0.426667-0.298667 0.128z" fill="#ffffff" p-id="7222"></path><path d="M375.338667 525.098667a62.72 62.72 0 1 1-125.44 0 62.72 62.72 0 0 1 125.44 0z" fill="#ffffff" p-id="7223"></path>
                </svg>