<?xml version="1.0" standalone="no"?>
<!DOCTYPE svg PUBLIC "-//W3C//DTD SVG 1.1//EN" "http://www.w3.org/Graphics/SVG/1.1/DTD/svg11.dtd">
<svg t="1715173468142" class="icon" viewBox="0 0 1024 1024" version="1.1" xmlns="http://www.w3.org/2000/svg" p-id="4267" xmlns:xlink="http://www.w3.org/1999/xlink" width="200" height="200">
<path d="M821.204053 547.669333l-32 32.042667-241.792-241.706667 32.042667-32a171.093333 171.093333 0 0 1 241.749333 0 171.093333 171.093333 0 0 1 0 241.664M220.79872 313.429333c64.469333-64.554667 177.109333-64.554667 241.706667 0l296.533333 296.448-36.181333 36.138667-127.957334-127.914667a21.333333 21.333333 0 0 0-30.165333 30.165334l128 127.914666-36.693333 36.608L528.12672 584.96a21.333333 21.333333 0 0 0-30.165333 30.165333l127.914666 127.914667-39.338666 39.296-127.914667-127.914667a21.333333 21.333333 0 0 0-30.165333 30.165334l127.914666 127.914666-39.125333 39.125334-296.448-296.448a171.136 171.136 0 0 1 0-241.749334m630.613333-37.546666a213.845333 213.845333 0 0 0-302.08 0l-32.085333 32-24.576-24.618667A212.352 212.352 0 0 0 341.63072 220.672a212.181333 212.181333 0 0 0-150.997333 62.549333 213.845333 213.845333 0 0 0 0 302.08l308.053333 308.053334 0.426667 0.298666c0.853333 1.28 1.408 2.645333 2.56 3.754667a21.248 21.248 0 0 0 30.122666 0l319.573334-319.573333a213.888 213.888 0 0 0 0-302.037334" fill="#25db11" p-id="4268">
</path>
</svg>