<?xml version="1.0" standalone="no"?><!DOCTYPE svg PUBLIC "-//W3C//DTD SVG 1.1//EN" "http://www.w3.org/Graphics/SVG/1.1/DTD/svg11.dtd"><svg t="1715512403205" class="icon" viewBox="0 0 1024 1024" version="1.1" xmlns="http://www.w3.org/2000/svg" p-id="903" xmlns:xlink="http://www.w3.org/1999/xlink" width="200" height="200"><path d="M739.474286 684.617143l199.972571 199.68a38.912 38.912 0 1 1-55.222857 55.149714l-199.972571-199.826286a373.394286 373.394286 0 0 1-235.885715 83.382858A375.003429 375.003429 0 1 1 448.365714 73.142857a375.003429 375.003429 0 0 1 291.108572 611.474286z m-291.108572 68.169143a302.811429 302.811429 0 0 0 215.698286-89.234286 304.64 304.64 0 0 0 65.389714-334.043429 304.932571 304.932571 0 1 0-399.725714 399.36c37.522286 15.872 77.531429 23.917714 118.637714 23.917715z" fill="#000000" fill-opacity=".65" p-id="904"></path></svg>