<?xml version="1.0" standalone="no"?><!DOCTYPE svg PUBLIC "-//W3C//DTD SVG 1.1//EN" "http://www.w3.org/Graphics/SVG/1.1/DTD/svg11.dtd"><svg t="1735562790480" class="icon" viewBox="0 0 1024 1024" version="1.1" xmlns="http://www.w3.org/2000/svg" p-id="10801" data-spm-anchor-id="a313x.search_index.0.i5.2d8c3a81fQ9ZEs" xmlns:xlink="http://www.w3.org/1999/xlink" width="200" height="200"><path d="M512 64c126.72 3.328 232.192 47.168 316.48 131.456C912.832 279.872 956.672 385.344 960 512c-3.328 126.72-47.168 232.192-131.52 316.48C744.192 912.832 638.72 956.672 512 960c-126.72-3.328-232.192-47.168-316.544-131.52C111.232 744.192 67.392 638.72 64 512c3.328-126.72 47.168-232.192 131.456-316.544C279.872 111.232 385.344 67.392 512 64z m67.008 275.008a61.44 61.44 0 0 0 43.008-15.488c11.328-10.304 17.024-24.128 17.024-41.472s-5.696-31.232-17.024-41.536a60.672 60.672 0 0 0-42.496-15.488 60.672 60.672 0 0 0-42.496 15.488c-11.328 10.304-16.96 24.192-16.96 41.536 0 17.28 5.632 31.168 16.96 41.472a60.032 60.032 0 0 0 41.984 15.488z m12.032 360c0-4.032 0.32-9.344 0.96-16 0.64-6.656 0.64-12.992 0-19.008l-52.992 60.992c-5.312 6.016-10.88 10.688-16.512 14.016-5.696 3.328-10.496 4.352-14.464 3.008-6.016-2.688-8.704-7.36-8-14.016l88-276.992c3.264-18.688 0.32-34.688-9.024-48-9.344-13.312-24.32-21.312-44.992-24-23.36 0.64-48.832 10.496-76.48 29.504-27.712 19.008-51.84 43.2-72.512 72.512v14.976c-0.64 6.72-0.64 13.056 0 19.008l52.928-60.992c5.376-5.952 10.88-10.624 16.512-14.016 5.76-3.328 10.24-4.288 13.568-2.944 6.656 3.264 8.96 8.64 6.976 16l-87.04 275.968a49.664 49.664 0 0 0 7.04 44.48c9.344 13.056 25.664 21.888 49.024 26.56 33.28-0.64 61.312-10.368 83.968-29.056a321.92 321.92 0 0 0 63.04-72z" fill="#BDD2EF" p-id="10802" data-spm-anchor-id="a313x.search_index.0.i0.2d8c3a81fQ9ZEs" class=""></path></svg>