<?xml version="1.0" standalone="no"?><!DOCTYPE svg PUBLIC "-//W3C//DTD SVG 1.1//EN" "http://www.w3.org/Graphics/SVG/1.1/DTD/svg11.dtd"><svg t="1737470830098" class="icon" viewBox="0 0 1238 1024" version="1.1" xmlns="http://www.w3.org/2000/svg" p-id="4581" xmlns:xlink="http://www.w3.org/1999/xlink" width="38.6875" height="32"><path d="M619.448558 423.102512l214.016 214.825674-62.559256 62.797395-107.52-107.948651v379.689675A44.293953 44.293953 0 0 1 619.162791 1016.855814a44.293953 44.293953 0 0 1-44.222512-44.389209V592.77693l-107.52 107.948651L404.837209 637.928186l214.016-214.80186 0.285768 0.261953 0.285767-0.285767zM630.212465 0c184.08186 0 337.467535 131.85786 373.164651 306.580837 129.762233 0 234.948465 105.59107 234.948465 235.829582 0 123.237209-94.160372 224.37507-214.230325 231.685953H903.739535a43.817674 43.817674 0 0 1-44.055814-43.889116v-1.024c0-24.171163 19.670326-43.889116 43.960558-43.889116h105.281488c78.347907-3.024372 140.978605-63.511814 140.978605-142.883721 0-79.467163-62.797395-144.193488-141.312-146.932093-0.023814 1.000186-55.153116 1.524093-65.154977 1.619348h-1.571721a23.43293 23.43293 0 0 1-23.409116-21.38493s-3.714977-51.747721-3.405395-51.866791c-26.123907-133.977302-143.693395-235.043721-284.814884-235.04372-86.849488 0-164.792558 38.269023-217.659535 99.87572 0 0-13.812093 13.169116-26.266791 33.982512-8.525395 14.264558-12.597581 22.694698-12.597581 22.694698-5.596279 10.692465-19.932279 18.598698-31.934512 17.384186 0 0-45.29414-5.405767-70.632186-3.572093-103.447814 15.883907-182.653023 105.59107-182.653023 213.89693 0 119.498419 96.517953 212.229953 216.278326 212.301395 23.456744 1.071628 49.056744 20.503814 49.056744 44.317768 0 24.528372-23.933023 44.413023-49.771163 44.413023C136.168186 774.096372 0 641.619349 0 473.064186S136.120558 167.864558 304.056558 167.864558c3.953116 0 7.882419 0.095256 11.811721 0.23814C383.88093 66.702884 499.283349 0 630.212465 0z" fill="#2CABF8" p-id="4582"></path></svg>