<?xml version="1.0" standalone="no"?><!DOCTYPE svg PUBLIC "-//W3C//DTD SVG 1.1//EN" "http://www.w3.org/Graphics/SVG/1.1/DTD/svg11.dtd"><svg t="1737470362367" class="icon" viewBox="0 0 1024 1024" version="1.1" xmlns="http://www.w3.org/2000/svg" p-id="4228" width="32" height="32" xmlns:xlink="http://www.w3.org/1999/xlink"><path d="M146.285714 182.857143a36.571429 36.571429 0 1 0 73.142857 0 36.571429 36.571429 0 0 0-73.142857 0z" fill="#0C76F2" p-id="4229"></path><path d="M73.654857 286.72h876.690286c36.790857 0 73.654857-27.282286 73.654857-68.242286V68.242286C1024 34.157714 994.523429 0 950.345143 0H73.654857C29.476571 0 0 34.157714 0 68.242286v150.235428c0 40.96 29.476571 68.242286 73.654857 68.242286zM942.957714 68.242286v150.235428L73.654857 225.28V68.242286h869.302857z m-817.737143 409.6c0 18.870857 16.530286 34.157714 36.864 34.157714s36.790857-15.286857 36.790858-34.157714c0-18.797714-16.457143-34.084571-36.790858-34.084572s-36.864 15.286857-36.864 34.084572z" fill="#0C76F2" p-id="4230"></path><path d="M66.779429 652.434286h370.980571c22.308571 0 37.156571-13.677714 37.156571-34.157715s-14.848-34.084571-37.156571-34.084571l-363.52 6.802286-7.460571-157.037715 883.053714-6.802285 7.387428 150.162285c-22.235429 0-37.083429 13.677714-37.083428 34.157715s14.848 34.157714 37.083428 34.157714c37.083429 0 66.779429-27.355429 66.779429-61.44V427.154286c0-34.157714-29.696-61.44-66.779429-61.44H66.779429C29.696 365.714286 0 392.996571 0 427.154286v157.037714c0 40.96 29.696 68.242286 66.779429 68.242286z m59.392 191.122285c0 18.870857 16.603429 34.157714 37.083428 34.157715s37.083429-15.286857 37.083429-34.157715c0-18.797714-16.603429-34.084571-37.083429-34.084571s-37.083429 15.286857-37.083428 34.084571z" fill="#0C76F2" p-id="4231"></path><path d="M266.605714 731.428571H58.514286c-32.475429 0-58.514286 27.794286-58.514286 62.683429v160.182857c0 34.889143 26.038857 69.705143 58.514286 69.705143h188.562285c19.456 0 32.475429-13.897143 32.475429-34.816s-6.509714-34.816-25.965714-34.816H65.024L58.514286 801.060571h201.581714c19.456 0 32.475429-13.897143 32.475429-34.816S286.061714 731.428571 266.605714 731.428571zM815.030857 832.658286l-120.685714-128.438857v287.597714c0 17.773714-16.384 32.182857-36.571429 32.182857-20.260571 0-36.644571-14.409143-36.644571-32.182857V705.389714l-119.588572 127.268572a40.228571 40.228571 0 0 1-51.931428 0 29.696 29.696 0 0 1 0-45.787429L630.491429 594.358857A39.058286 39.058286 0 0 1 658.285714 585.142857a39.204571 39.204571 0 0 1 27.794286 9.142857l180.882286 192.512a29.696 29.696 0 0 1 0 45.787429 40.228571 40.228571 0 0 1-51.931429 0z" fill="#0C76F2" p-id="4232"></path></svg>