<?xml version="1.0" encoding="UTF-8"?>
<!DOCTYPE svg PUBLIC "-//W3C//DTD SVG 1.1//EN" "http://www.w3.org/Graphics/SVG/1.1/DTD/svg11.dtd">
<svg width="20px" height="20px" viewBox="0 0 20 20" version="1.1" xmlns="http://www.w3.org/2000/svg" xmlns:xlink="http://www.w3.org/1999/xlink">
    <title>动漫</title>
    <g id="动漫" stroke="none" stroke-width="1" fill="none" fill-rule="evenodd">
        <polygon id="路径" points="0 0 20 0 20 20 0 20"></polygon>
        <g id="score" transform="translate(0.000000, -0.012797)">
            <polygon id="路径" points="0 0 20 0 20 20 0 20"></polygon>
            <path d="M10,0.961530392 C14.9919231,0.961530392 19.0384615,5.00807692 19.0384615,10 C19.0384615,14.9919231 14.9919231,19.0384615 10,19.0384615 C5.00807692,19.0384615 0.961538462,14.9919231 0.961538462,10 C0.961538462,8.73846154 1.22,7.53730769 1.68692308,6.44615385 L1.34923077,3.06961538 C1.3023923,2.60061024 1.46848229,2.13533852 1.80173144,1.80201485 C2.13498059,1.46869118 2.60021517,1.30249716 3.06923077,1.34923077 L6.44615385,1.68692308 C7.56934236,1.20669928 8.77845808,0.959903586 10,0.961530392 Z M9.99999033,2.5 C9.04,2.5 8.10769231,2.67961538 7.23730769,3.02461538 L7.05192308,3.10153846 L6.67807692,3.26115385 L2.88153846,2.88153846 L3.26115385,6.67769231 L3.10115385,7.05192308 C2.70290226,7.98367458 2.49836999,8.98670709 2.49999033,10 C2.49999033,14.1423077 5.85769231,17.5 9.99999033,17.5 C14.1423077,17.5 17.4999903,14.1423077 17.4999903,10 C17.4999903,5.85769231 14.1423077,2.5 9.99999033,2.5 Z M7.13269231,11.96 C7.19923077,12.0457692 7.25692308,12.1165385 7.30653846,12.1715385 C8.05769231,13.0138462 8.97692308,13.4615385 10,13.4615385 C11.0223077,13.4615385 11.9403846,13.0142308 12.6915385,12.1746154 C12.7415385,12.1184615 12.8003846,12.0469231 12.8676923,11.9603846 C13.0639478,11.7074716 13.4213313,11.6472666 13.6896154,11.8219231 L13.9473077,11.9892308 C14.0908854,12.0828162 14.188932,12.232037 14.2178412,12.4009661 C14.2467504,12.5698953 14.2039031,12.7432276 14.0996154,12.8792308 C14.0015385,13.0073077 13.9169231,13.1111538 13.8457692,13.1911538 C12.8146154,14.3480769 11.4919231,15 10,15 C8.50769231,15 7.18461538,14.3476923 6.15384615,13.19 C6.06553176,13.0892235 5.98086191,12.9853105 5.9,12.8784615 C5.79591556,12.7423829 5.75326919,12.5690747 5.78232162,12.4002348 C5.81137406,12.2313949 5.90949514,12.0823086 6.05307692,11.9888462 L6.31076923,11.8211538 C6.57914841,11.6465823 6.93654929,11.7069575 7.13269231,11.96 Z" id="形状结合" fill-opacity="0.4" fill="#25db11" fill-rule="nonzero"></path>
        </g>
    </g>
</svg>