<?xml version="1.0" encoding="UTF-8"?>
<svg width="20px" height="20px" viewBox="0 0 20 20" version="1.1" xmlns="http://www.w3.org/2000/svg" xmlns:xlink="http://www.w3.org/1999/xlink">
    <title>电影</title>
    <g id="电影" stroke="none" stroke-width="1" fill="none" fill-rule="evenodd">
        <polygon id="路径" opacity="0.303" points="0 0 20 0 20 20 0 20"></polygon>
        <path d="M10,1.15384615 C14.8857692,1.15384615 18.8461538,5.11423077 18.8461538,10 C18.8461538,13.0360689 17.3168467,15.7147995 14.9865063,17.3079178 L18.0769231,17.3076923 C18.5017575,17.3076923 18.8461538,17.6520887 18.8461538,18.0769231 C18.8461538,18.5017575 18.5017575,18.8461538 18.0769231,18.8461538 L10.7692308,18.8461538 C10.7103428,18.8461538 10.6530004,18.8395367 10.5979065,18.8270054 C10.40105,18.8394302 10.2013105,18.8461538 10,18.8461538 C5.11423077,18.8461538 1.15384615,14.8857692 1.15384615,10 C1.15384615,5.11423077 5.11423077,1.15384615 10,1.15384615 Z M10,2.69230769 C5.96423077,2.69230769 2.69230769,5.96423077 2.69230769,10 C2.69230769,14.0357692 5.96423077,17.3076923 10,17.3076923 C14.0357692,17.3076923 17.3076923,14.0357692 17.3076923,10 C17.3076923,5.96423077 14.0357692,2.69230769 10,2.69230769 Z M10,11.9230769 C10.8496688,11.9230769 11.5384615,12.6118696 11.5384615,13.4615385 C11.5384615,14.3112073 10.8496688,15 10,15 C9.15033115,15 8.46153846,14.3112073 8.46153846,13.4615385 C8.46153846,12.6118696 9.15033115,11.9230769 10,11.9230769 Z M13.4615385,8.46153846 C14.3112073,8.46153846 15,9.15033115 15,10 C15,10.8496688 14.3112073,11.5384615 13.4615385,11.5384615 C12.6118696,11.5384615 11.9230769,10.8496688 11.9230769,10 C11.9230769,9.15033115 12.6118696,8.46153846 13.4615385,8.46153846 Z M6.53846154,8.46153846 C7.38813038,8.46153846 8.07692308,9.15033115 8.07692308,10 C8.07692308,10.8496688 7.38813038,11.5384615 6.53846154,11.5384615 C5.68879269,11.5384615 5,10.8496688 5,10 C5,9.15033115 5.68879269,8.46153846 6.53846154,8.46153846 Z M10,5 C10.8496688,5 11.5384615,5.68879269 11.5384615,6.53846154 C11.5384615,7.38813038 10.8496688,8.07692308 10,8.07692308 C9.15033115,8.07692308 8.46153846,7.38813038 8.46153846,6.53846154 C8.46153846,5.68879269 9.15033115,5 10,5 Z" id="形状结合" fill-opacity="0.4" fill="#25db11" fill-rule="nonzero"></path>
    </g>
</svg>