<?xml version="1.0" encoding="UTF-8"?>
<svg width="20px" height="20px" viewBox="0 0 20 20" version="1.1" xmlns="http://www.w3.org/2000/svg" xmlns:xlink="http://www.w3.org/1999/xlink">
    <title>风云榜</title>
    <g id="风云榜" stroke="none" stroke-width="1" fill="none" fill-rule="evenodd" fill-opacity="0.4">
        <g id="top1" transform="translate(2.202797, 1.538462)" fill="#FFFFFF" fill-rule="nonzero">
            <path d="M12.3076923,0 C14.00703,0 15.3846154,1.37758539 15.3846154,3.07692308 L15.3846154,3.07692308 L15.3846154,10.8025866 C15.3846154,11.885997 14.8148305,12.8895681 13.8844943,13.4447734 L13.8844943,13.4447734 L9.26910969,16.1991387 C8.29781508,16.778787 7.0868003,16.778787 6.1155057,16.1991387 L6.1155057,16.1991387 L1.50012108,13.4447734 C0.569784922,12.8895681 0,11.885997 0,10.8025866 L0,10.8025866 L0,3.07692308 C0,1.37758539 1.37758539,0 3.07692308,0 L3.07692308,0 Z M12.3076923,1.53846154 L3.07692308,1.53846154 C2.22725423,1.53846154 1.53846154,2.22725423 1.53846154,3.07692308 L1.53846154,3.07692308 L1.53846154,10.8025866 C1.53846154,11.3442918 1.823354,11.8460774 2.28852208,12.12368 L2.28852208,12.12368 L6.9039067,14.8780453 C7.389554,15.1678695 7.99506139,15.1678695 8.48070869,14.8780453 L8.48070869,14.8780453 L13.0960933,12.12368 C13.5612614,11.8460774 13.8461538,11.3442918 13.8461538,10.8025866 L13.8461538,10.8025866 L13.8461538,3.07692308 C13.8461538,2.22725423 13.1573612,1.53846154 12.3076923,1.53846154 L12.3076923,1.53846154 Z M7.69230355,4.11391408 C7.83197851,4.11391408 7.9608199,4.18916529 8.02943983,4.31082217 L8.85944277,5.78322906 L10.5163521,6.11752684 C10.6533009,6.14517021 10.764725,6.24446943 10.8078938,6.37734375 C10.8510626,6.51021807 10.8192759,6.65604423 10.7247237,6.75889862 L9.58080861,8.00332242 L9.7747297,9.68242366 C9.79076432,9.82122292 9.73075,9.95789058 9.61770525,10.0400077 C9.5046605,10.1221249 9.35613387,10.1369441 9.22909276,10.0787813 L7.69230355,9.37534966 L6.15538532,10.0787813 C6.02834422,10.1369441 5.87981758,10.1221249 5.76677283,10.0400077 C5.65372808,9.95789058 5.59371376,9.82122292 5.60974838,9.68242366 L5.8037985,8.00332242 L4.65988337,6.75889862 C4.56540075,6.65604104 4.53365758,6.51026008 4.57682041,6.37743081 C4.61998324,6.24460154 4.7313573,6.14532647 4.868255,6.11765587 L6.52516434,5.78322906 L7.35516727,4.31082217 C7.42378721,4.18916529 7.5526286,4.11391408 7.69230355,4.11391408 Z" id="形状结合" fill="#25db11"></path>
        </g>
    </g>
</svg>