<?xml version="1.0" encoding="UTF-8"?>
<svg width="20px" height="20px" viewBox="0 0 20 20" version="1.1" xmlns="http://www.w3.org/2000/svg" xmlns:xlink="http://www.w3.org/1999/xlink">
    <title>纪录片</title>
    <g id="纪录片" stroke="none" stroke-width="1" fill="none" fill-rule="evenodd">
        <path d="M12.7326923,2.30769231 L12.9926923,2.31153846 L13.23,2.32 L13.4469231,2.33153846 C14.0680769,2.37384615 14.4338462,2.46961538 14.7546154,2.61423077 L14.8603846,2.66423077 L14.9642308,2.71807692 C15.4597638,2.98039178 15.8649928,3.38562078 16.1273077,3.88115385 C16.2869231,4.17923077 16.4019231,4.47538462 16.4688462,4.95423077 L17.6465385,4.61192308 C18.0983796,4.48026151 18.5856296,4.56265896 18.9690546,4.83557 C19.3524796,5.10848105 19.5898962,5.54188067 19.6134615,6.01192308 L19.6153846,6.08884615 L19.6153846,13.9092308 C19.6153846,14.3796135 19.4001285,14.8241339 19.0311597,15.1158905 C18.662191,15.4076472 18.1800241,15.5145771 17.7223077,15.4061538 L17.6457692,15.3861538 L16.4692308,15.0426923 C16.4019231,15.5226923 16.2869231,15.8196154 16.1273077,16.1176923 C15.8649928,16.6132254 15.4597638,17.0184544 14.9642308,17.2807692 L14.8603846,17.3346154 L14.755,17.3846154 C14.4519231,17.5211538 14.1084615,17.6142308 13.5480769,17.6596154 L13.3407692,17.6734615 C13.3046154,17.6757692 13.2676923,17.6773077 13.23,17.6792308 L12.9926923,17.6869231 L12.7326923,17.6911538 L12.5942308,17.6919231 L5.48269231,17.6919231 L5.21115385,17.6896154 C5.16884296,17.6890329 5.12653486,17.6882637 5.08423077,17.6873077 L4.84692308,17.6792308 L4.63,17.6669231 C4.00884615,17.6246154 3.64307692,17.5292308 3.32230769,17.3846154 L3.21653846,17.3346154 L3.11269231,17.2807692 C2.61715924,17.0184544 2.21193024,16.6132254 1.94961538,16.1176923 L1.89576923,16.0138462 L1.84576923,15.9080769 C1.70884615,15.605 1.61615385,15.2619231 1.57076923,14.7011538 L1.55653846,14.4942308 L1.55115385,14.3834615 L1.54307692,14.1457692 L1.53923077,13.8861538 C1.53846154,13.8407692 1.53846154,13.7946154 1.53846154,13.7476923 L1.53884615,6.11307692 L1.54269231,5.85307692 L1.55115385,5.61576923 L1.56307692,5.39884615 C1.60538462,4.77769231 1.70076923,4.41153846 1.84576923,4.09115385 L1.89576923,3.98538462 L1.94961538,3.88153846 C2.21186846,3.38586295 2.61710353,2.98049387 3.11269231,2.71807692 L3.21653846,2.66423077 L3.32192308,2.61423077 C3.625,2.47769231 3.96846154,2.385 4.52884615,2.33923077 L4.73615385,2.32538462 L4.84692308,2.32 L5.08423077,2.31192308 L5.34423077,2.30769231 L12.7326923,2.30769231 Z M15,5.81769231 L14.9992308,5.71307692 L14.9946154,5.52384615 C14.9807692,5.17115385 14.9384615,4.965 14.8707692,4.795 L14.8346154,4.71230769 C14.8219344,4.68544645 14.8085971,4.65890002 14.7946154,4.63269231 C14.663458,4.38492577 14.4608435,4.18231127 14.2130769,4.05115385 C14.186873,4.03704269 14.1603265,4.02357709 14.1334615,4.01076923 L14.0507692,3.975 C13.8807692,3.90692308 13.6746154,3.865 13.3215385,3.85076923 L13.1323077,3.84615385 L4.94461538,3.84615385 L4.75538462,3.85076923 C4.40230769,3.865 4.19615385,3.90692308 4.02615385,3.975 L3.94346154,4.01076923 C3.91653846,4.02346154 3.89038462,4.03692308 3.86384615,4.05115385 C3.61607962,4.18231127 3.41346512,4.38492577 3.28230769,4.63269231 C3.15538462,4.87038462 3.08461538,5.10576923 3.07769231,5.71346154 L3.07769231,14.2857692 L3.08230769,14.475 C3.09615385,14.8276923 3.13846154,15.0338462 3.20615385,15.2042308 L3.24230769,15.2865385 C3.3703125,15.5699592 3.58915974,15.8026113 3.86423077,15.9476923 C4.10153846,16.0746154 4.33730769,16.1457692 4.94461538,16.1526923 L5.04923077,16.1534615 L13.0276923,16.1534615 L13.1323077,16.1526923 L13.3215385,16.1480769 C13.6746154,16.1338462 13.8807692,16.0919231 14.0507692,16.0242308 L14.1334615,15.9880769 C14.1603846,15.9753846 14.1865385,15.9619231 14.2130769,15.9476923 C14.4608435,15.8165349 14.663458,15.6139204 14.7946154,15.3661538 C14.9215385,15.1288462 14.9923077,14.8930769 14.9992308,14.2857692 L15,14.1811538 L15,13.4880769 C14.9999832,13.3677107 15.0563167,13.2542777 15.1522277,13.1815514 C15.2481388,13.1088251 15.3725656,13.0851934 15.4884615,13.1176923 L17.5884615,13.7080769 C17.6967386,13.738422 17.8128725,13.7198621 17.9062988,13.657282 C17.9997251,13.5947019 18.0610854,13.4943702 18.0742308,13.3826923 L18.0769231,13.3384615 L18.0769231,6.66153846 C18.0769231,6.54895667 18.0276845,6.44200755 17.9420704,6.36889885 C17.8564563,6.29579015 17.7431087,6.26386311 17.6319231,6.28153846 L17.5880769,6.29115385 L15.4888462,6.88153846 C15.3729632,6.91416361 15.2484893,6.89064658 15.1524971,6.81799159 C15.0565049,6.7453366 15.0000697,6.63192635 15,6.51153846 L15,5.81807692 L15,5.81769231 Z M6.15384615,5.76923077 C6.79109779,5.76923077 7.30769231,6.28582529 7.30769231,6.92307692 C7.30769231,7.56032856 6.79109779,8.07692308 6.15384615,8.07692308 C5.51659452,8.07692308 5,7.56032856 5,6.92307692 C5,6.28582529 5.51659452,5.76923077 6.15384615,5.76923077 Z" id="形状" fill-opacity="0.4" fill="#25db11" fill-rule="nonzero"></path>
        <polygon id="路径" points="0 0 20 0 20 20 0 20"></polygon>
    </g>
</svg>