<?xml version="1.0" encoding="UTF-8"?>
<svg width="20px" height="20px" viewBox="0 0 20 20" version="1.1" xmlns="http://www.w3.org/2000/svg" xmlns:xlink="http://www.w3.org/1999/xlink">
    <title>电视剧</title>
    <g id="电视剧" stroke="none" stroke-width="1" fill="none" fill-rule="evenodd">
        <polygon id="路径" points="0 0 20 0 20 20 0 20"></polygon>
        <path d="M14.6307692,0.97 L14.8480769,1.225 C14.9484077,1.34261962 14.9973343,1.49558596 14.9838853,1.64959822 C14.9704364,1.80361047 14.8957373,1.94578135 14.7765385,2.04423077 L12.1296154,4.23076923 L14.5169231,4.23076923 C15.8888462,4.23076923 16.3861538,4.37346154 16.8873077,4.64192308 C17.3828408,4.90423793 17.7880698,5.30946693 18.0503846,5.805 C18.3192308,6.30615385 18.4615385,6.80346154 18.4615385,8.17538462 L18.4615385,14.1323077 C18.4615385,15.5042308 18.3188462,16.0015385 18.0503846,16.5026923 C17.7880698,16.9982254 17.3828408,17.4034544 16.8873077,17.6657692 C16.3861538,17.9346154 15.8888462,18.0769231 14.5169231,18.0769231 L5.48307692,18.0769231 C4.11115385,18.0769231 3.61384615,17.9342308 3.11269231,17.6657692 C2.61715924,17.4034544 2.21193024,16.9982254 1.94961538,16.5026923 C1.68076923,16.0015385 1.53846154,15.5042308 1.53846154,14.1323077 L1.53846154,8.17538462 C1.53846154,6.80346154 1.68115385,6.30615385 1.94961538,5.805 C2.21193024,5.30946693 2.61715924,4.90423793 3.11269231,4.64192308 C3.61384615,4.37307692 4.11115385,4.23076923 5.48307692,4.23076923 L7.78730769,4.23076923 L6.18653846,2.65307692 C6.07641924,2.54458127 6.01444853,2.39643083 6.01452084,2.24184253 C6.01459314,2.08725423 6.07670241,1.93916182 6.18692308,1.83076923 L6.435,1.58692308 C6.65956584,1.36577335 7.02004955,1.36577335 7.24461538,1.58692308 L9.86576923,4.17038462 L13.8246154,0.899615385 C14.0674955,0.699090051 14.4263145,0.73041824 14.6307692,0.97 L14.6307692,0.97 Z M14.9507692,5.76923077 L5.04923077,5.76923077 C4.36346154,5.76923077 4.11461538,5.84076923 3.86384615,5.97461538 C3.61607962,6.10577281 3.41346512,6.30838731 3.28230769,6.55615385 C3.15538462,6.79384615 3.08461538,7.02923077 3.07769231,7.63692308 L3.07692308,7.74153846 L3.07692308,14.5661538 C3.07692308,15.2519231 3.14846154,15.5007692 3.28230769,15.7515385 C3.41653846,16.0023077 3.61307692,16.1988462 3.86384615,16.3330769 C4.10153846,16.46 4.33692308,16.5307692 4.94461538,16.5376923 L5.04923077,16.5384615 L14.9507692,16.5384615 C15.6365385,16.5384615 15.8853846,16.4669231 16.1361538,16.3330769 C16.3839204,16.2019195 16.5865349,15.999305 16.7176923,15.7515385 C16.8446154,15.5138462 16.9153846,15.2784615 16.9223077,14.6707692 L16.9230769,14.5661538 L16.9230769,7.74153846 C16.9230769,7.05576923 16.8515385,6.80692308 16.7176923,6.55615385 C16.5865349,6.30838731 16.3839204,6.10577281 16.1361538,5.97461538 C15.8853846,5.84076923 15.6365385,5.76923077 14.9507692,5.76923077 L14.9507692,5.76923077 Z M8.65384615,8.28153846 C8.79326517,8.28153846 8.93006358,8.319425 9.04961538,8.39115385 L12.5546154,10.4942308 C12.786317,10.6332474 12.9280893,10.8836402 12.9280893,11.1538462 C12.9280893,11.4240521 12.786317,11.6744449 12.5546154,11.8134615 L9.04961538,13.9165385 C8.81197536,14.0591241 8.51600745,14.0628585 8.2748455,13.9263141 C8.03368355,13.7897698 7.88461538,13.5340574 7.88461538,13.2569231 L7.88461538,9.05076923 C7.88461538,8.62593481 8.22901173,8.28153846 8.65384615,8.28153846 Z" id="形状" fill-opacity="0.4" fill="#25db11" fill-rule="nonzero"></path>
    </g>
</svg>