<?xml version="1.0" encoding="UTF-8"?>
<svg width="20px" height="20px" viewBox="0 0 20 20" version="1.1" xmlns="http://www.w3.org/2000/svg" xmlns:xlink="http://www.w3.org/1999/xlink">
    <title>体育</title>
    <g id="体育" stroke="none" stroke-width="1" fill="none" fill-rule="evenodd">
        <polygon id="路径" opacity="0.303" points="0 0 20 0 20 20 0 20"></polygon>
        <path d="M10,1.15384615 C14.8857692,1.15384615 18.8461538,5.11423077 18.8461538,10 C18.8461538,14.8857692 14.8857692,18.8461538 10,18.8461538 C5.11423077,18.8461538 1.15384615,14.8857692 1.15384615,10 C1.15384615,9.89692186 1.15560896,9.79425561 1.15910607,9.69202977 C1.15515718,9.66750189 1.15384615,9.64159635 1.15384615,9.61538462 C1.15384615,9.56405046 1.15887458,9.51389075 1.16846574,9.46537118 C1.4351703,5.00557513 5.00557513,1.4351703 9.46615304,1.1696876 C9.51389075,1.15887458 9.56405046,1.15384615 9.61538462,1.15384615 L9.69202977,1.15910607 C9.79425561,1.15560896 9.89692186,1.15384615 10,1.15384615 Z M9.82384615,10.9118462 L5.21397145,15.5223873 C6.32365507,16.4849511 7.72633414,17.1186292 9.27029927,17.2717122 C9.44230878,15.4312989 10.2055393,13.7624235 11.3674354,12.4559665 L9.82384615,10.9118462 Z M12.4576557,13.5460365 C11.5732968,14.5668656 10.982557,15.8490108 10.8167917,17.2611166 C12.240475,17.1037785 13.5389022,16.5374071 14.5945115,15.6828887 L12.4576557,13.5460365 Z M17.2142983,11.1713945 L17.0845633,11.1801542 C15.7828631,11.2933649 14.5843192,11.7668006 13.5891605,12.5002324 L15.6828887,14.5945115 C16.4662538,13.6267998 17.0074604,12.4550241 17.2142983,11.1713945 Z M7.33750024,8.42578826 C6.05717826,9.49299985 4.45677359,10.1892098 2.70140862,10.3492957 C2.77144923,11.8641267 3.30479503,13.2598446 4.16270196,14.3969606 L8.73584615,9.82384615 L7.33750024,8.42578826 Z M15.5223873,5.21397145 L10.9118462,9.82384615 L12.4899859,11.4030995 C13.8282414,10.3584277 15.4888246,9.70748627 17.297582,9.62442854 C17.2132287,7.94165533 16.5582484,6.40815519 15.5223873,5.21397145 Z M2.79176936,8.79155737 L2.82734404,8.78763162 C4.1098168,8.62033469 5.28197093,8.10204839 6.24424964,7.33232953 L4.31711126,5.40548848 C3.54128905,6.36388234 3.00298439,7.52242932 2.79176936,8.79155737 Z M10.3475712,2.70042872 L10.3244505,2.93735677 C10.1258186,4.60011952 9.44498957,6.11477566 8.42578826,7.33750024 L9.82384615,8.73584615 L14.3969606,4.16270196 C13.2598446,3.30479503 11.8641267,2.77144923 10.3475712,2.70042872 Z M8.79207998,2.79255726 L8.58445519,2.82932081 C7.39637719,3.06254042 6.31149746,3.58369474 5.40548848,4.31711126 L7.33232953,6.24424964 C8.10900248,5.27327713 8.62967917,4.0886198 8.79207998,2.79255726 Z" id="形状结合" fill-opacity="0.4" fill="#25db11" fill-rule="nonzero"></path>
    </g>
</svg>