<?xml version="1.0" encoding="UTF-8"?>
<svg width="20px" height="20px" viewBox="0 0 20 20" version="1.1" xmlns="http://www.w3.org/2000/svg" xmlns:xlink="http://www.w3.org/1999/xlink">
    <title>游戏</title>
    <g id="游戏" stroke="none" stroke-width="1" fill="none" fill-rule="evenodd" fill-opacity="0.4">
        <path d="M12.5193593,3.23073982 C14.2274567,3.22995873 15.4998635,3.64913437 16.4785684,4.65228684 C17.1046978,5.29405671 17.5869754,6.15933305 17.9508751,7.2827693 L17.9508751,7.2827693 L18.7385942,9.67560082 L18.8592505,10.0580854 L18.97124,10.4229114 L19.0742458,10.7690917 L19.0742458,10.7690917 L19.1225021,10.9352655 L19.2144119,11.2602799 L19.3000626,11.5755965 L19.3793079,11.8813106 L19.4520014,12.1775178 C19.4635628,12.2260987 19.4748452,12.2742875 19.4858454,12.3220862 L19.4858454,12.3220862 L19.5484367,12.604212 C19.5582961,12.6504579 19.5678673,12.6963177 19.5771473,12.7417933 L19.5771473,12.7417933 L19.6293069,13.0100525 C19.9453068,14.7239776 19.8089755,15.8596031 19.0394061,16.534918 C18.2198967,17.2533387 17.0432117,17.2274377 15.5862306,16.7113533 C14.5835924,16.3562039 13.4944353,15.7876262 12.2615809,15.0309557 C11.9421617,14.8354782 11.63968,14.7248973 11.268099,14.6631219 C11.2165994,14.6545601 11.1324539,14.6472814 11.025333,14.6412816 L11.025333,14.6412816 L10.848629,14.6332407 L10.6447147,14.6271152 L10.3036901,14.6215114 L10.0634819,14.6201608 L9.70201441,14.621705 L9.36091933,14.6275241 L9.15692883,14.6337733 L8.98012502,14.6419148 C8.95332622,14.6434292 8.9279624,14.6450223 8.90418467,14.6466941 L8.90418467,14.6466941 L8.78176013,14.6576682 L8.73708918,14.6638621 C8.36409221,14.7258233 8.06082043,14.8368458 7.74047095,15.0333213 C6.50585574,15.791438 5.41617846,16.3608669 4.41327505,16.7169829 C2.95556991,17.2345922 1.77901527,17.262017 0.9657343,16.5497576 C0.926187795,16.5158411 0.891469822,16.4825517 0.853474544,16.4436074 C0.159644899,15.7324462 0.0658182284,14.5796089 0.405137479,12.8582835 L0.405137479,12.8582835 L0.460735262,12.588962 L0.523032677,12.3105677 L0.591894705,12.0229979 L0.667186329,11.72615 L0.74877253,11.4199214 L0.83651829,11.1042096 L0.930288591,10.7789118 L1.03266166,10.4350635 L1.1446737,10.0702684 L1.26524021,9.68812371 L1.39587422,9.28325001 L2.1028364,7.14733185 C3.04941465,4.36917615 4.734098,3.23490627 7.48984096,3.23352563 L7.48984096,3.23352563 Z M12.520448,4.76918832 L7.76108719,4.77191649 L7.37205765,4.77283031 C5.29998711,4.801649 4.23164404,5.57256142 3.51846214,7.7655517 L3.51846214,7.7655517 L3.1083504,9.00414074 L2.79363874,9.96034836 L2.67151141,10.3428674 L2.55877686,10.704811 L2.45397041,11.0513601 L2.36485135,11.3566406 L2.28190812,11.6525175 C2.26859852,11.7010366 2.25554597,11.7491561 2.24275032,11.7968724 L2.24275032,11.7968724 L2.16905808,12.0783004 L2.10152467,12.3498668 C2.09078196,12.3942959 2.08029558,12.4383065 2.0700654,12.4818947 L2.0700654,12.4818947 L2.01175746,12.7383252 L1.95959134,12.9844361 L1.91356022,13.2200442 L1.8736573,13.4449663 C1.86751712,13.4815526 1.86163199,13.517686 1.85600179,13.5533628 L1.85600179,13.5533628 L1.82527841,13.7619124 C1.79761176,13.9649205 1.7791119,14.1512125 1.7697482,14.3199642 L1.7697482,14.3199642 L1.76342874,14.4828385 C1.7541458,14.9275768 1.81812399,15.2292984 1.95466679,15.369252 C1.96350008,15.3783059 1.96749415,15.3821356 1.97328644,15.3871573 L1.97328644,15.3871573 L2.00781419,15.4149942 C2.35444732,15.6722145 3.07284854,15.5858608 4.04871582,15.2115495 L4.04871582,15.2115495 L4.25425562,15.1300152 C4.28911204,15.1157474 4.32426523,15.1011419 4.3597105,15.0862007 L4.3597105,15.0862007 L4.57584964,14.9925453 C4.6124445,14.976271 4.64932206,14.9596658 4.68647766,14.9427318 L4.68647766,14.9427318 L4.91270998,14.8372015 L5.14538991,14.7238915 L5.38429247,14.6029113 L5.62919271,14.4743702 L5.87986567,14.3383777 L6.13608639,14.1950433 L6.39762992,14.0444765 L6.6642713,13.8867867 L6.93578557,13.7220833 C7.42851383,13.4198849 7.9195484,13.2401257 8.48497926,13.146198 C8.56129201,13.1335211 8.6703152,13.1227063 8.80235595,13.1137583 L8.80235595,13.1137583 L9.01646865,13.1017371 L9.25783803,13.0925198 L9.51919442,13.08611 L9.79326817,13.0825113 L10.0727896,13.0817273 L10.3504891,13.0837617 L10.6190969,13.088618 L10.8713435,13.0963 L11.0999591,13.1068111 L11.297674,13.1201551 C11.3875947,13.1275359 11.4632016,13.1359803 11.5204054,13.1454904 C12.083843,13.239162 12.5735652,13.418194 13.0654866,13.7192399 L13.0654866,13.7192399 L13.3367484,13.8837052 L13.6031414,14.0411558 C13.6471221,14.0668069 13.6908906,14.0921612 13.7344421,14.1172164 L13.7344421,14.1172164 L13.9931118,14.2639402 L14.2463523,14.4033762 L14.4939395,14.5354154 C14.5347205,14.5567995 14.5752565,14.5778708 14.6155431,14.5986271 L14.6155431,14.5986271 L14.85423,14.7193664 L15.0867033,14.8324358 L15.3127387,14.9377264 C15.3498623,14.9546205 15.3867083,14.9711859 15.4232721,14.9874204 L15.4232721,14.9874204 L15.6392304,15.0808379 L15.8481904,15.1662034 L15.8481904,15.1662034 L15.949976,15.2058326 L16.1480184,15.2789157 C17.0547533,15.6006304 17.7145716,15.6504021 18.0249569,15.3783038 C18.1720282,15.2492453 18.2433532,14.9476448 18.2370459,14.4932271 L18.2370459,14.4932271 L18.2320656,14.3361218 C18.2294454,14.2818847 18.2258641,14.2257881 18.2213192,14.167859 L18.2213192,14.167859 L18.2047913,13.988601 C18.1983166,13.9270339 18.1908758,13.8636614 18.1824662,13.7985104 L18.1824662,13.7985104 L18.1543285,13.5977493 C18.1491536,13.563409 18.1437359,13.5286308 18.138075,13.4934181 L18.138075,13.4934181 L18.1011892,13.2769559 C18.0945544,13.2400189 18.0876758,13.2026543 18.080553,13.1648654 L18.080553,13.1648654 L18.0348842,12.9330672 L17.9833407,12.6912479 L17.9259069,12.43957 L17.8625673,12.1781958 L17.7933064,11.9072875 L17.7181087,11.6270077 L17.6369586,11.3375185 C17.6089148,11.2395053 17.5798764,11.1399842 17.5498407,11.0389824 L17.5498407,11.0389824 L17.4983769,10.8673665 L17.389826,10.5137866 L17.2724994,10.1419003 L17.1448634,9.74629671 L16.4343959,7.59851971 C16.1481507,6.76740794 15.7974542,6.15721369 15.3773761,5.72664225 C14.7246141,5.05757453 13.8474356,4.76860103 12.520448,4.76918832 L12.520448,4.76918832 Z M6.76,6.88000223 C7.15764502,6.88000223 7.48,7.20235721 7.48,7.60000223 L7.479,8.32000223 L8.2,8.32001244 C8.59764502,8.32001244 8.92,8.64236742 8.92,9.04001244 C8.92,9.43765746 8.59764502,9.76001244 8.2,9.76001244 L7.479,9.76000223 L7.48,10.4800022 C7.48,10.8776472 7.15764502,11.2000022 6.76,11.2000022 C6.36235498,11.2000022 6.04,10.8776472 6.04,10.4800022 L6.039,9.76000223 L5.32,9.76001244 C4.92235498,9.76001244 4.6,9.43765746 4.6,9.04001244 C4.6,8.64236742 4.92235498,8.32001244 5.32,8.32001244 L6.039,8.32000223 L6.04,7.60000223 C6.04,7.20235721 6.36235498,6.88000223 6.76,6.88000223 Z M13.96,7.60000223 C14.75529,7.60000223 15.4,8.24471219 15.4,9.04000223 C15.4,9.83529227 14.75529,10.4800022 13.96,10.4800022 C13.16471,10.4800022 12.52,9.83529227 12.52,9.04000223 C12.52,8.24471219 13.16471,7.60000223 13.96,7.60000223 Z" id="形状结合" fill="#25db11" fill-rule="nonzero"></path>
    </g>
</svg>