<?xml version="1.0" encoding="UTF-8"?>
<svg width="20px" height="20px" viewBox="0 0 20 20" version="1.1" xmlns="http://www.w3.org/2000/svg" xmlns:xlink="http://www.w3.org/1999/xlink">
    <title>综艺</title>
    <g id="综艺" stroke="none" stroke-width="1" fill="none" fill-rule="evenodd" fill-opacity="0.4">
        <g id="编组-3" transform="translate(1.710444, 0.963753)" fill="#FFFFFF" fill-rule="nonzero">
            <path d="M10.4027262,0 C14.0138188,0 16.9411877,2.92736894 16.9411877,6.53846154 C16.9411877,10.1495541 14.0138188,13.0769231 10.4027262,13.0769231 C10.0290566,13.0769231 9.66270819,13.0455775 9.30616689,12.9853725 L4.25343517,16.5843066 C3.8037754,16.904722 3.25672563,17.0066363 2.74725854,16.9012972 L2.79999987,16.9604035 C3.2345902,17.3883819 3.97180705,17.478762 5.10478126,17.0338623 C5.50021996,16.8785802 5.94666735,17.0732656 6.10194942,17.4687043 C6.25723149,17.864143 6.06254607,18.3105904 5.66710737,18.4658725 C4.0069638,19.1177827 2.62623757,18.9485106 1.72051383,18.0565667 C1.03630014,17.3827627 0.728265453,16.3597722 0.840889535,15.4415292 L0.563281786,15.1636439 C-0.0618006246,14.5385615 -0.17583884,13.5745747 0.267328011,12.8256101 L0.356962812,12.6878342 L3.95598399,7.63601954 C3.89566877,7.27916368 3.86426467,6.91248002 3.86426467,6.53846154 C3.86426467,2.92736894 6.79163361,0 10.4027262,0 Z M2.82890586,11.8670361 L1.60987458,13.5806254 C1.5266015,13.6974879 1.51711989,13.8472406 1.57649368,13.9706511 L1.62034112,14.0410625 L1.65113837,14.0757873 L2.8654821,15.290131 C2.9793364,15.4039853 3.14940818,15.4330675 3.29201613,15.3704042 L3.36064404,15.3313948 L5.09680679,14.0941541 C4.11958674,13.4589919 3.36082693,12.7165929 2.82890586,11.8670361 Z M4.54862929,9.45391005 L3.827,10.467 L3.91019216,10.650366 C4.37108911,11.590203 5.1904784,12.4001754 6.39049613,13.0804928 L6.462,13.12 L7.48627613,12.3920586 C6.21668713,11.7582819 5.18219512,10.7236227 4.54862929,9.45391005 Z M10.4027262,1.53846154 C7.64130246,1.53846154 5.40272621,3.77703779 5.40272621,6.53846154 C5.40272621,9.29988529 7.64130246,11.5384615 10.4027262,11.5384615 C13.16415,11.5384615 15.4027262,9.29988529 15.4027262,6.53846154 C15.4027262,3.77703779 13.16415,1.53846154 10.4027262,1.53846154 Z" id="形状结合" fill="#25db11"></path>
        </g>
    </g>
</svg>