<?xml version="1.0" standalone="no"?><!DOCTYPE svg PUBLIC "-//W3C//DTD SVG 1.1//EN" "http://www.w3.org/Graphics/SVG/1.1/DTD/svg11.dtd"><svg t="1735560004059" class="icon" viewBox="0 0 1024 1024" version="1.1" xmlns="http://www.w3.org/2000/svg" p-id="3524" xmlns:xlink="http://www.w3.org/1999/xlink" width="200" height="200"><path d="M514 912c-219.9 0-398.8-178.9-398.8-398.8S294.1 114.3 514 114.3s398.8 178.9 398.8 398.9C912.8 733.1 733.9 912 514 912z m0-701.5c-166.9 0-302.7 135.8-302.7 302.7S347.1 815.9 514 815.9s302.7-135.8 302.7-302.7S680.9 210.5 514 210.5z" fill="#BDD2EF" p-id="3525"></path><path d="M658.2 421.6H511.7c-32.5 0-58.8-26.3-58.8-58.8s26.3-58.8 58.8-58.8h146.5c32.5 0 58.8 26.3 58.8 58.8-0.1 32.5-26.4 58.8-58.8 58.8zM658.2 572.8H511.7c-32.5 0-58.8-26.3-58.8-58.8s26.3-58.8 58.8-58.8h146.5c32.5 0 58.8 26.3 58.8 58.8-0.1 32.5-26.4 58.8-58.8 58.8zM658.2 724.1H511.7c-32.5 0-58.8-26.3-58.8-58.8s26.3-58.8 58.8-58.8h146.5c32.5 0 58.8 26.3 58.8 58.8-0.1 32.5-26.4 58.8-58.8 58.8zM369.3 421.6h-4.5c-32.5 0-58.8-26.3-58.8-58.8s26.3-58.8 58.8-58.8h4.5c32.5 0 58.8 26.3 58.8 58.8s-26.4 58.8-58.8 58.8zM369.3 572.8h-4.5c-32.5 0-58.8-26.3-58.8-58.8s26.3-58.8 58.8-58.8h4.5c32.5 0 58.8 26.3 58.8 58.8s-26.4 58.8-58.8 58.8zM369.3 724.1h-4.5c-32.5 0-58.8-26.3-58.8-58.8s26.3-58.8 58.8-58.8h4.5c32.5 0 58.8 26.3 58.8 58.8-0.1 32.5-26.4 58.8-58.8 58.8z" fill="#2867CE" p-id="3526"></path></svg>