<?xml version="1.0" standalone="no"?><!DOCTYPE svg PUBLIC "-//W3C//DTD SVG 1.1//EN" "http://www.w3.org/Graphics/SVG/1.1/DTD/svg11.dtd"><svg t="1735547684060" class="icon" viewBox="0 0 1024 1024" version="1.1" xmlns="http://www.w3.org/2000/svg" p-id="3361" xmlns:xlink="http://www.w3.org/1999/xlink" width="200" height="200"><path d="M329.3 357.6v421c24.3 20.5 51.8 37.3 81.7 49.5V423h27.8v414.9c10.3 3.1 20.8 5.6 31.5 7.5V357.6h-141zM678.9 808v-93.8h-12.7V485.9h108.5v-14.1c0-63.4-50.7-114.2-114.2-114.2H502.7v128.3h67.7v228.3h-14.1v134.5c13.7-1.4 27.1-3.8 40.2-7v-75.9h42.3V828c13.8-5.7 27.3-12.3 40.1-20z" fill="#2867CE" p-id="3362"></path><path d="M514 912c-219.9 0-398.8-178.9-398.8-398.9 0-219.9 178.9-398.8 398.8-398.8s398.9 178.9 398.9 398.8c0 220-179 398.9-398.9 398.9z m0-701.5c-166.9 0-302.7 135.8-302.7 302.7S347.1 815.9 514 815.9s302.7-135.8 302.7-302.7S680.9 210.5 514 210.5z" fill="#BDD2EF" p-id="3363"></path></svg>