<?xml version="1.0" standalone="no"?><!DOCTYPE svg PUBLIC "-//W3C//DTD SVG 1.1//EN" "http://www.w3.org/Graphics/SVG/1.1/DTD/svg11.dtd"><svg t="1735543505339" class="icon" viewBox="0 0 1024 1024" version="1.1" xmlns="http://www.w3.org/2000/svg" p-id="5263" xmlns:xlink="http://www.w3.org/1999/xlink" width="200" height="200"><path d="M514 912c-219.9 0-398.8-178.9-398.8-398.8S294.1 114.4 514 114.4s398.8 178.9 398.8 398.8S733.9 912 514 912z m0-701.5c-166.9 0-302.7 135.8-302.7 302.7 0 166.9 135.8 302.7 302.7 302.7s302.7-135.8 302.7-302.7c0-166.9-135.8-302.7-302.7-302.7z" fill="#BDD2EF" p-id="5264"></path><path d="M482.8 607.6H358.3c-29.1 0-54.7-21.5-57.6-50.5-3.3-33.3 23.1-61.7 55.8-61.7h126.3V370.8c0-29.1 21.5-54.7 50.5-57.6 33.3-3.3 61.7 23.1 61.7 55.8v197.8c0 22.5-18.2 40.7-40.7 40.7h-71.5z" fill="#2867CE" p-id="5265"></path></svg>