<svg xmlns="http://www.w3.org/2000/svg" xmlns:xlink="http://www.w3.org/1999/xlink" width="1108.1537170410156" height="557.321044921875" viewBox="0 0 1108.1537170410156 557.321044921875" fill="none">
<g filter="url(#filter_1_2)">
<path   fill="url(#linear_border_1_2_0)"  d="M100 392.325M100 392.325Q104.871 390.589 113.48 387.546Q130.66 381.472 149.375 374.925Q209.258 353.977 262.041 336.147L262.041 336.147L262.041 336.147Q286.052 328.036 305.471 321.962Q323.997 316.167 341.588 311.215Q356.959 306.888 375.804 302.04Q383.614 300.032 393.902 297.447Q400.158 295.875 413.625 292.515Q428.544 288.793 436.819 286.715Q450.798 283.206 463.494 279.972Q496.299 271.614 530.742 262.485L539.581 295.833L530.742 262.485L539.581 295.833L530.742 262.485Q559.096 254.97 587.669 248.056Q598.805 245.361 611.432 242.404Q618.899 240.655 632.709 237.463Q649.659 233.544 657.519 231.679Q670.249 228.656 680.047 226.134Q691.425 223.204 701.54 220.266Q712.577 217.06 723.378 213.48Q734.886 209.666 746.98 205.146Q759.675 200.402 773.703 194.625Q802.798 182.643 841.481 164.575L856.081 195.833L841.481 164.575L856.081 195.833L841.481 164.575Q892.17 140.899 921.11 126.192Q933.078 120.109 940.898 115.777Q947.009 112.391 949.875 110.49Q950.237 110.25 950.442 110.103Q950.386 110.143 950.201 110.292Q949.6 110.775 948.932 111.411Q947.52 112.756 946.228 114.389Q943.51 117.827 941.773 121.967Q940.262 125.567 939.615 129.436Q938.716 134.813 939.547 140.214Q940.025 143.318 941.062 146.284Q942.115 149.296 943.709 152.061Q946.59 157.06 950.95 160.828Q954.177 163.618 957.985 165.517Q960.597 166.82 963.382 167.648Q966.646 168.619 969.981 168.893Q971.712 169.036 973.396 168.983Q974.952 168.935 976.357 168.727Q977.285 168.589 978.302 168.339L961.861 101.327Q963.971 100.809 966.229 100.474Q975.127 99.1536 983.054 101.512Q986.02 102.394 988.777 103.768Q992.734 105.742 996.07 108.625Q1000.54 112.491 1003.49 117.607Q1005.12 120.432 1006.2 123.51Q1007.26 126.542 1007.74 129.719Q1008.6 135.268 1007.67 140.816Q1006.99 144.862 1005.4 148.663Q1003.49 153.223 1000.35 157.186Q997.493 160.802 993.46 164.048Q991.113 165.936 988.015 167.991Q982.855 171.413 974.336 176.133Q965.438 181.063 952.371 187.704Q922.41 202.93 870.681 227.091L870.681 227.091L870.681 227.091Q830.55 245.836 799.978 258.426Q784.898 264.636 771.135 269.78Q757.826 274.754 745.087 278.976Q733.062 282.962 720.787 286.527Q709.655 289.761 697.251 292.954Q686.822 295.64 673.457 298.813Q665.396 300.726 648.25 304.69Q634.538 307.86 627.165 309.586Q614.786 312.485 603.897 315.12Q576.05 321.858 548.42 329.182L548.42 329.182L548.42 329.182Q513.657 338.396 480.53 346.836Q467.712 350.102 453.618 353.639Q445.3 355.727 430.327 359.463Q416.915 362.809 410.717 364.366Q400.617 366.904 392.993 368.865Q374.904 373.518 360.286 377.633Q343.65 382.317 326.07 387.816Q307.397 393.657 284.122 401.519L273.081 368.833L284.122 401.519L273.081 368.833L284.122 401.519Q231.69 419.23 172.159 440.055Q153.545 446.567 136.478 452.6Q127.962 455.611 123.163 457.321L100 392.325Z">
</path>
</g>
<defs>
<linearGradient id="linear_border_1_2_0" x1="111.5814208984375" y1="279.65594482421875" x2="973.6510009765625" y2="279.65594482421875" gradientUnits="userSpaceOnUse">
<stop offset="0" stop-color="#00E1FF"  />
<stop offset="1" stop-color="#7AFFC8" stop-opacity="0.4" />
</linearGradient>
<filter id="filter_1_2" x="0" y="0" width="1108.1537170410156" height="557.321044921875" filterUnits="userSpaceOnUse" color-interpolation-filters="sRGB">
<feFlood flood-opacity="0" result="feFloodId_1_2"/>
<feBlend mode="normal" in="SourceGraphic" in2="feFloodId_1_2" result="shape"/>
<feGaussianBlur result="gaussian_blur_1_2" stdDeviation="50"/>
</filter>
</defs>
</svg>
